<!-- Generator: Adobe Illustrator 19.1.0, SVG Export Plug-In  -->
<svg version="1.1"
	 xmlns="http://www.w3.org/2000/svg" xmlns:xlink="http://www.w3.org/1999/xlink" xmlns:a="http://ns.adobe.com/AdobeSVGViewerExtensions/3.0/"
	 x="0px" y="0px" width="152.217px" height="80.681px" viewBox="0 0 152.217 80.681"
	 style="enable-background:new 0 0 152.217 80.681;" xml:space="preserve">
<style type="text/css">
	.st0{fill:#FFFFFF;}
</style>
<defs>
</defs>
<g>
	<path class="st0" d="M42.834,31.44c0,0,0,16.721,0,27.402c0,0.25,0,0.495,0.002,0.739c0.039,0.378,0.078,0.757,0.114,1.138
		c0.246,0.956,0.408,1.947,0.492,2.951c0.027,0.335,0.045,0.671,0.048,1.005c-0.262,3.015-0.478,6.258-2.203,8.836
		c-0.244,0.215-0.521,0.389-0.822,0.526c-1.506,0.686-3.6,0.45-5.019-0.294c-0.54-0.324-0.973-0.865-1.244-1.406
		c-0.129-0.251-0.246-0.534-0.349-0.854c-0.309-0.959-0.492-2.244-0.492-3.945V31.44H29.5v45.172
		c0.084,0.113,0.168,0.225,0.257,0.333c0.938,1.267,2.47,2.566,4.851,3.226c0.397,0.11,0.817,0.202,1.263,0.274
		c1.953,0.324,3.79,0.215,5.72-0.05c0.34-0.102,0.698-0.2,1.065-0.299c2.572-0.694,5.599-1.463,5.977-4.3
		c0.108-0.703,0.027-1.432,0.024-2.146c-0.001-0.238,0.006-0.474,0.03-0.707c0.054-1.472,1.459-2.553,1.891-3.958
		c0.122-0.351,0.201-0.703,0.246-1.054c0.316-2.46-1.049-4.925-1.369-7.43c-0.049-0.235-0.093-0.469-0.132-0.703
		c-0.157-0.935-0.244-1.866-0.217-2.786c0-0.296,0-0.595,0-0.897c0-10.575,0-24.676,0-24.676H42.834z"/>
	<path class="st0" d="M97.341,56.029c0.15-0.199,0.275-0.411,0.382-0.633c0.108-0.222,0.197-0.452,0.275-0.687
		c0.311-0.941,0.431-1.974,0.792-2.91c0.757-1.946,2.811-3.135,2.901-5.422c0.013-0.398,0.012-0.798-0.002-1.197
		c-0.126-3.596-1.336-7.197-3.808-9.935c-0.195-0.248-0.4-0.483-0.616-0.705c-1.946-2.005-4.81-3.032-8.593-3.032h-5.453
		c0,0,0,8.182,0,17.87c0,0.313,0,0.627,0,0.942c0.066,1.157,0.113,2.308,0.14,3.457c0.009,0.383,0.016,0.766,0.02,1.149
		c0.386,3.791-0.046,7.683-0.16,11.435c0,0.288,0,0.573,0,0.856c0,7.64,0,13.465,0,13.465h5.453c1.103,0,2.13-0.09,3.082-0.269
		c0.238-0.045,0.471-0.095,0.7-0.151c0.748-0.115,1.512-0.302,2.255-0.561c0.372-0.13,0.738-0.278,1.095-0.444
		c4.608-0.974,5.581-5.73,4.842-9.823c0.028-0.414,0.057-0.83,0.079-1.263c0.228-4.156,2.065-9.453-2.774-11.512
		C97.856,56.474,97.63,56.289,97.341,56.029z M92.893,73.289c-0.589,0.562-1.346,0.67-1.953,0.921
		c-0.234,0.056-0.474,0.096-0.722,0.126c-0.494,0.059-1.013,0.074-1.547,0.074h-3.203c0,0,0-3.894,0-7.742
		c0.001-0.226,0.001-0.453,0.002-0.678c0.239-2.3-0.625-5.327,0.78-6.624c0.54-0.54,2.054-0.216,3.206-0.153
		c0.253,0.01,0.502,0.028,0.744,0.056c0.969,0.114,1.829,0.395,2.54,1.062c0.188,0.2,0.364,0.431,0.526,0.697
		c0.162,0.266,0.31,0.567,0.443,0.907c0.647,2.079,1.404,4.024,1.621,6.094c0.036,0.362,0.051,0.721,0.038,1.073
		c-0.009,0.235-0.03,0.466-0.065,0.694c-0.035,0.229-0.084,0.453-0.148,0.674c-0.259,1.003-1.015,1.651-1.687,2.36
		C93.278,72.999,93.087,73.152,92.893,73.289z M92.522,51.488c-0.867,1.499-2.813,1.499-4.351,1.436c-0.3,0-0.701,0-1.101,0
		s-0.801,0-1.1,0c-0.299,0-0.496,0-0.496,0s-0.004-0.309-0.005-0.839c0-0.265,0-0.585,0-0.949c0-4.007,0-13.358,0-13.358h3.203
		c1.334,0,2.576,0.093,3.571,0.703c0.199,0.122,0.389,0.265,0.569,0.432c1.438,1.536,1.762,3.806,1.571,5.795
		c-0.023,0.296-0.06,0.59-0.113,0.882c-0.105,0.584-0.274,1.16-0.509,1.716c-0.087,0.294-0.175,0.587-0.264,0.881
		c-0.263,0.882-0.531,1.766-0.718,2.67C92.707,51.092,92.623,51.302,92.522,51.488z"/>
	<g>
		<path class="st0" d="M150.804,76.183c-0.004-0.009-0.008-0.017-0.011-0.026l-0.405,0.026H150.804z"/>
		<path class="st0" d="M149.07,74.787l0.476-0.029l-4.068-0.163l-1.601,0.115c0.008,0.025,0.015,0.051,0.023,0.076H149.07z"/>
		<path class="st0" d="M149.812,72.031c0-0.01,0-0.02-0.001-0.031l-0.953,0.031H149.812z"/>
		<path class="st0" d="M150.133,74.338h-1.079l-1.645,0.118l2.786,0.111C150.173,74.492,150.153,74.415,150.133,74.338z"/>
		<path class="st0" d="M150.63,75.774l-6.299,0.375c0.004,0.011,0.007,0.023,0.011,0.034h2.66l3.701-0.237
			C150.679,75.889,150.654,75.832,150.63,75.774z"/>
		<path class="st0" d="M143.294,72.46c0.02,0.093,0.041,0.187,0.062,0.28l3.466-0.139L143.294,72.46z"/>
		<path class="st0" d="M149.512,73.544h-5.959c0.03,0.117,0.061,0.233,0.092,0.349L149.512,73.544z"/>
		<path class="st0" d="M149.816,71.022h-3.275l1.961,0.063h1.312C149.815,71.064,149.815,71.043,149.816,71.022z"/>
		<path class="st0" d="M149.836,70.622l-4.594,0.184h4.584C149.829,70.745,149.832,70.684,149.836,70.622z"/>
		<path class="st0" d="M150.927,76.463h-4.899l-1.556,0.1c0.009,0.027,0.019,0.055,0.028,0.082h6.506
			C150.98,76.583,150.953,76.523,150.927,76.463z"/>
		<path class="st0" d="M149.884,69.996c0.008-0.089,0.017-0.179,0.026-0.268l-5.592,0.268H149.884z"/>
		<polygon class="st0" points="149.046,74.122 149.683,74.076 148.249,74.122 		"/>
		<path class="st0" d="M150.438,75.287c-0.037-0.094-0.07-0.189-0.103-0.284h-1.259l-5.018,0.303
			c0.004,0.013,0.009,0.027,0.013,0.04h6.391C150.454,75.327,150.446,75.307,150.438,75.287z"/>
		<path class="st0" d="M150.018,73.849c-0.008-0.039-0.015-0.078-0.022-0.117l-4.283,0.255L150.018,73.849z"/>
		<path class="st0" d="M149.987,68.679l-7.17,0.229l2.882,0.115h4.264C149.971,68.908,149.979,68.793,149.987,68.679z"/>
		<path class="st0" d="M151.898,79.317c-0.029-0.123-0.061-0.254-0.096-0.396h-0.084l-6.337,0.456
			c0.015,0.064,0.028,0.124,0.042,0.185h3.069L151.898,79.317z"/>
		<path class="st0" d="M143.411,72.973l1.291,0.041l4.699-0.301l-5.995,0.24C143.408,72.96,143.409,72.967,143.411,72.973z"/>
		<path class="st0" d="M143.497,73.328h4.233l-3.024-0.097l-1.213,0.078C143.494,73.315,143.496,73.321,143.497,73.328z"/>
		<path class="st0" d="M149.835,72.48c-0.005-0.069-0.008-0.137-0.012-0.206h-5.763l5.465,0.219L149.835,72.48z"/>
		<path class="st0" d="M149.872,72.9l-2.914,0.186l2.947,0.094C149.893,73.088,149.882,72.994,149.872,72.9z"/>
		<polygon class="st0" points="146.044,74.338 144.448,74.338 145.474,74.379 		"/>
		<path class="st0" d="M144.849,77.625c0.014,0.038,0.027,0.075,0.041,0.113l1.565-0.113H144.849z"/>
		<path class="st0" d="M149.938,69.409l-4.243-0.17h-2.876c0.015,0.204,0.032,0.407,0.053,0.61l7.06-0.339
			C149.934,69.477,149.936,69.443,149.938,69.409z"/>
		<path class="st0" d="M142.912,70.212c0.016,0.135,0.033,0.271,0.052,0.406l6.809-0.406H142.912z"/>
		<path class="st0" d="M149.807,71.343l-1.308-0.042h-5.43c0.03,0.176,0.062,0.351,0.096,0.527l6.641-0.401
			C149.807,71.399,149.807,71.371,149.807,71.343z"/>
		<polygon class="st0" points="145.489,79.779 145.472,79.779 145.472,79.78 		"/>
		<path class="st0" d="M145.276,78.922c0.019,0.083,0.038,0.165,0.056,0.243l3.376-0.243H145.276z"/>
		<path class="st0" d="M145.521,79.993c0.014,0.061,0.027,0.118,0.039,0.172h6.536c-0.026-0.112-0.056-0.241-0.09-0.386h-3.508
			L145.521,79.993z"/>
		<path class="st0" d="M151.956,79.562c-0.001-0.003-0.001-0.006-0.002-0.009c-0.002-0.008-0.004-0.016-0.006-0.024l-0.447,0.032
			H151.956z"/>
		<path class="st0" d="M142.641,67.378l7.437-0.297c0.002-0.061,0.004-0.123,0.006-0.184h-10.272l-0.005-0.216l10.282-0.494
			c-0.001-0.088-0.004-0.175-0.007-0.263h-10.27v-0.216h10.261c-0.026-0.524-0.085-1.053-0.194-1.592
			c-0.07-0.272-0.153-0.542-0.247-0.809c-0.282-0.802-0.661-1.581-1.17-2.327c-0.151-0.314-0.289-0.632-0.405-0.958
			c-0.116-0.325-0.212-0.658-0.278-0.999c-0.077-0.374-0.14-0.751-0.196-1.131c-0.333-2.279-0.364-4.646-1.026-6.866
			c-0.096-0.323-0.21-0.639-0.336-0.951c-0.759-1.871-1.971-3.578-2.44-5.544c-0.069-0.275-0.138-0.548-0.228-0.818
			c-1.201-3.048-1.957-6.074-2.065-9.317c-0.108-0.54-0.216-0.973-0.411-1.518c-0.118-0.436-0.199-0.781-0.253-1.014
			c-0.055-0.234-0.083-0.357-0.083-0.357h-5.004c0,0-4.603,19.953-6.373,27.628c-0.085,0.365-0.163,0.703-0.242,1.008
			c-0.136,0.322-0.251,0.649-0.348,0.98c-0.096,0.331-0.173,0.665-0.223,1.002c-0.035,0.7-0.143,1.457-0.035,2.105
			c0.54,2.702,0.54,5.297,0.617,7.961c0.015,0.239,0.034,0.478,0.053,0.717c0.073,0.959,0.124,1.93,0.098,2.918
			c-0.059,0.349-0.122,0.697-0.188,1.046c-0.132,0.697-0.274,1.394-0.413,2.093c-0.002,0.355-0.002,0.663-0.002,0.917
			c0,0.508,0,0.799,0,0.799h2.184c0,0,0.306-1.342,0.727-3.188c0.084-0.369,0.175-0.757,0.273-1.156
			c0.072-0.234,0.139-0.469,0.2-0.703c0.258-0.955,0.286-2.24,0.373-3.529c0.017-0.258,0.037-0.516,0.062-0.771
			c0.015-1.483,0.448-3.104,1.793-3.991c0.235-0.144,0.495-0.255,0.777-0.326c0.282-0.07,0.586-0.1,0.912-0.081
			c0.21,0,0.431,0,0.659,0c2.509,0,5.901,0,5.901,0S142.578,67.095,142.641,67.378z M136.922,60.664c-0.415,0-0.778,0-1.038,0
			c-0.259,0-0.415,0-0.415,0s0.078-0.335,0.208-0.895c0.622-2.458,1.055-4.836,1.708-7.361c0.055-0.236,0.108-0.466,0.16-0.69
			c0.208-0.895,0.389-1.677,0.519-2.236c-0.036-0.278,0.181-0.602,0.181-0.926c0.216,0.757,0.378,1.513,0.541,2.274
			c0.054,0.254,0.108,0.508,0.164,0.763c0.047,0.391,0.08,0.783,0.108,1.174c0.16,2.707,0.484,5.517,1.89,7.896
			c-0.973,0-2.054,0-3.037,0C137.582,60.663,137.253,60.664,136.922,60.664z"/>
		<path class="st0" d="M145.678,80.681h6.539c0,0-0.024-0.104-0.07-0.301h-6.537C145.654,80.574,145.678,80.681,145.678,80.681z"/>
		<path class="st0" d="M150.088,66.68c0.001-0.092,0.002-0.185,0.002-0.277l-5.772,0.277H150.088z"/>
		<path class="st0" d="M151.277,77.277c-0.044-0.106-0.088-0.213-0.134-0.318l-6.395,0.387c0.008,0.021,0.015,0.042,0.023,0.063
			h4.688L151.277,77.277z"/>
		<path class="st0" d="M149.199,76.86h-4.624c0.032,0.091,0.064,0.182,0.097,0.274L149.199,76.86z"/>
		<path class="st0" d="M142.77,67.957c0.001,0.246,0.007,0.492,0.018,0.736l7.214-0.231c0.01-0.143,0.019-0.286,0.028-0.428
			l-7.294-0.233C142.747,67.851,142.758,67.903,142.77,67.957z"/>
		<path class="st0" d="M149.299,75.563h-5.16c0.039,0.121,0.078,0.242,0.118,0.363L149.299,75.563z"/>
		<path class="st0" d="M145.025,78.103h4.513l2.001-0.128c-0.04-0.118-0.082-0.235-0.126-0.351h-1.949l-4.498,0.324
			C144.987,78,145.006,78.052,145.025,78.103z"/>
		<path class="st0" d="M146.16,78.319h-1.054c0.008,0.022,0.016,0.044,0.025,0.066L146.16,78.319z"/>
		<path class="st0" d="M145.493,75.003h-1.528c0.009,0.03,0.019,0.06,0.028,0.091L145.493,75.003z"/>
		<path class="st0" d="M150.043,67.818c0.01-0.174,0.019-0.348,0.027-0.521l-7.253,0.29L150.043,67.818z"/>
		<path class="st0" d="M151.747,78.703c0-0.002-0.001-0.003-0.001-0.005c-0.029-0.128-0.062-0.253-0.098-0.378h-2.102l-4.344,0.278
			c0.008,0.037,0.017,0.072,0.025,0.108h6.484L151.747,78.703z"/>
	</g>
	<g>
		<path class="st0" d="M69.795,41.254c-0.018,0.065-0.037,0.129-0.055,0.194l2.698-0.194H69.795z"/>
		<path class="st0" d="M78.132,42.551h-8.707c-0.075,0.262-0.15,0.527-0.226,0.793l8.933-0.643
			C78.132,42.651,78.132,42.601,78.132,42.551z"/>
		<path class="st0" d="M71.567,35.04c-0.022,0.078-0.045,0.157-0.068,0.237l2.722-0.131L71.567,35.04z"/>
		<path class="st0" d="M70.632,38.318c-0.02,0.07-0.04,0.141-0.061,0.212l2.065-0.132L70.632,38.318z"/>
		<path class="st0" d="M71.016,36.972c-0.025,0.088-0.05,0.177-0.076,0.267l2.91-0.176L71.016,36.972z"/>
		<path class="st0" d="M71.321,35.903c-0.009,0.032-0.018,0.064-0.028,0.096l1.619-0.096H71.321z"/>
		<path class="st0" d="M78.132,37.525l-6.134,0.196h6.134C78.132,37.656,78.132,37.59,78.132,37.525z"/>
		<path class="st0" d="M70.853,37.542l7.278-0.233c0-0.037,0-0.073,0-0.109l-1.938-0.062l-5.316,0.321
			C70.869,37.486,70.861,37.514,70.853,37.542z"/>
		<path class="st0" d="M78.132,38.047c0-0.036,0-0.073,0-0.109h-7.391c-0.016,0.055-0.032,0.111-0.048,0.167l4.024,0.161
			L78.132,38.047z"/>
		<path class="st0" d="M72.328,32.371h5.804c0-0.202,0-0.374,0-0.512l-5.736,0.275C72.375,32.208,72.352,32.287,72.328,32.371z"/>
		<path class="st0" d="M78.132,31.642c0-0.01,0-0.019,0-0.028h-5.588c-0.022,0.076-0.05,0.177-0.086,0.3L78.132,31.642z"/>
		<path class="st0" d="M73.659,80.58h-1.8c0,0.022,0,0.035,0,0.035s0.534,0,1.276-0.012C73.312,80.597,73.486,80.589,73.659,80.58z"
			/>
		<path class="st0" d="M71.86,80.182c0,0.068,0,0.129,0,0.181h5.724c-0.015-0.06-0.029-0.121-0.04-0.181H71.86z"/>
		<path class="st0" d="M71.86,79.966h5.651c-0.013-0.101-0.021-0.202-0.026-0.303l-5.625,0.185
			C71.86,79.888,71.86,79.928,71.86,79.966z"/>
		<path class="st0" d="M71.86,78.723c0,0.119,0,0.234,0,0.344h2.032l3.595-0.133c0.003-0.07,0.007-0.14,0.01-0.211H71.86z"/>
		<path class="st0" d="M73.906,79.283l-2.046,0.076c0,0.096,0,0.187,0,0.272l5.617-0.184c-0.001-0.055-0.001-0.109-0.001-0.164
			H73.906z"/>
		<path class="st0" d="M60.079,79.793c0.018,0.061,0.034,0.118,0.05,0.173h1.512l3.635-0.119c0.022-0.077,0.046-0.161,0.072-0.248
			L60.079,79.793z"/>
		<path class="st0" d="M78.132,44.377l-9.421,0.678c-0.019,0.066-0.038,0.132-0.057,0.198h9.477
			C78.132,44.958,78.132,44.666,78.132,44.377z"/>
		<path class="st0" d="M65.179,80.182h-3.524l-1.449,0.048c0.014,0.049,0.027,0.094,0.039,0.134h4.883
			C65.142,80.311,65.159,80.25,65.179,80.182z"/>
		<path class="st0" d="M65.054,80.615c0,0,0.004-0.013,0.01-0.035h-4.758c0.007,0.023,0.01,0.035,0.01,0.035H65.054z"/>
		<path class="st0" d="M78.132,44.01h-9.123c-0.078,0.273-0.156,0.548-0.235,0.824l9.358-0.674
			C78.132,44.11,78.132,44.06,78.132,44.01z"/>
		<path class="st0" d="M72.014,33.472l6.118,0.196c0-0.325,0-0.618,0-0.877l-5.992,0.24C72.1,33.17,72.058,33.317,72.014,33.472z"/>
		<path class="st0" d="M78.132,40.844c0-0.05,0-0.1,0-0.15h-5.916l-2.3,0.139c-0.019,0.068-0.039,0.136-0.058,0.204h5.584
			L78.132,40.844z"/>
		<path class="st0" d="M78.132,40.478c0-0.047,0-0.094,0-0.141l-2.339,0.141H78.132z"/>
		<path class="st0" d="M72.209,40.478l5.923-0.358c0-0.031,0-0.061,0-0.091h-5.939l-2.091,0.151
			c-0.028,0.099-0.057,0.198-0.085,0.298H72.209z"/>
		<path class="st0" d="M78.132,41.937c0-0.12,0-0.239,0-0.358l-5.587,0.358H78.132z"/>
		<path class="st0" d="M69.608,41.908l8.523-0.545c0-0.036,0-0.073,0-0.109h-2.684l-5.772,0.416
			C69.654,41.749,69.631,41.829,69.608,41.908z"/>
		<path class="st0" d="M72.651,39.235h-2.28c-0.013,0.046-0.026,0.092-0.039,0.138L72.651,39.235z"/>
		<path class="st0" d="M70.509,38.751c-0.025,0.089-0.051,0.178-0.076,0.267h5.848l1.851-0.11c0-0.097,0-0.194,0-0.29l-3.412-0.136
			L70.509,38.751z"/>
		<path class="st0" d="M78.132,39.385c0-0.05,0-0.1,0-0.15h-1.845l-6.018,0.358c-0.021,0.073-0.042,0.146-0.063,0.219h1.979
			L78.132,39.385z"/>
		<path class="st0" d="M69.071,43.794h9.061c0-0.296,0-0.588,0-0.877l-8.996,0.648C69.114,43.641,69.092,43.718,69.071,43.794z"/>
		<path class="st0" d="M78.132,42.153h-8.593c-0.017,0.06-0.034,0.121-0.052,0.181h8.645C78.132,42.274,78.132,42.214,78.132,42.153
			z"/>
		<polygon class="st0" points="77.811,35.903 76.548,35.903 73.964,36.057 		"/>
		<path class="st0" d="M72.202,32.812l5.608-0.224h-5.544C72.246,32.659,72.225,32.734,72.202,32.812z"/>
		<path class="st0" d="M78.132,34.958c0-0.009,0-0.019,0-0.028h-3.888l2.437,0.097L78.132,34.958z"/>
		<path class="st0" d="M77.674,73.666c0.031-0.126,0.069-0.246,0.112-0.363l-1.473-0.03l-4.444,0.109
			c0,0.111,0.001,0.222,0.001,0.333h4.17L77.674,73.666z"/>
		<path class="st0" d="M78.132,36.804c0-0.03,0-0.061,0-0.091H71.09c-0.004,0.015-0.008,0.03-0.013,0.045l5.113,0.164L78.132,36.804
			z"/>
		<path class="st0" d="M78.132,39.813c0-0.071,0-0.141,0-0.211l-2.937,0.211H78.132z"/>
		<path class="st0" d="M78.132,36.107l-6.948,0.278c-0.011,0.037-0.021,0.075-0.032,0.112h6.98
			C78.132,36.365,78.132,36.235,78.132,36.107z"/>
		<path class="st0" d="M78.132,34.209l-6.386,0.204c-0.028,0.098-0.057,0.198-0.086,0.301h6.472
			C78.132,34.54,78.132,34.371,78.132,34.209z"/>
		<path class="st0" d="M78.132,35.592c0-0.098,0-0.195,0-0.29l-1.45-0.058l-5.245,0.252c-0.018,0.063-0.036,0.127-0.054,0.191h5.159
			L78.132,35.592z"/>
		<path class="st0" d="M78.132,38.402c0-0.046,0-0.093,0-0.139L76.8,38.349L78.132,38.402z"/>
		<path class="st0" d="M78.132,33.884l-6.179-0.198c-0.046,0.162-0.095,0.332-0.145,0.509l6.324-0.202
			C78.132,33.956,78.132,33.92,78.132,33.884z"/>
		<path class="st0" d="M66.277,76.383l-7.226-0.148c0.003,0.011,0.006,0.022,0.01,0.033c0.046,0.158,0.09,0.311,0.134,0.462
			l7.049-0.231C66.254,76.461,66.265,76.422,66.277,76.383z"/>
		<path class="st0" d="M60.612,78.723H59.77c0.002,0.009,0.005,0.017,0.007,0.026L60.612,78.723z"/>
		<path class="st0" d="M65.583,78.785l-5.743,0.178c0.01,0.035,0.02,0.069,0.03,0.103h5.632
			C65.527,78.976,65.555,78.882,65.583,78.785z"/>
		<path class="st0" d="M76.542,76.377l0.884,0.018c0-0.016-0.001-0.031-0.001-0.047L76.542,76.377z"/>
		<path class="st0" d="M71.86,78.374l5.664-0.175c0.002-0.047,0.003-0.094,0.004-0.141h-5.666
			C71.861,78.163,71.86,78.269,71.86,78.374z"/>
		<path class="st0" d="M77.503,77.264h-1.962l-3.677,0.112c0,0.102-0.001,0.204-0.001,0.306l5.657-0.209
			C77.516,77.403,77.51,77.334,77.503,77.264z"/>
		<path class="st0" d="M74.578,78.507h2.93c0.002-0.03,0.003-0.061,0.005-0.091L74.578,78.507z"/>
		<path class="st0" d="M66.001,77.338c0.007-0.025,0.014-0.05,0.022-0.075h-6.674c0.027,0.093,0.054,0.185,0.08,0.276L66.001,77.338
			z"/>
		<path class="st0" d="M59.257,76.949c0.01,0.033,0.019,0.066,0.028,0.098h6.799c0.031-0.108,0.063-0.218,0.095-0.33l-6.924,0.227
			C59.256,76.946,59.257,76.948,59.257,76.949z"/>
		<path class="st0" d="M65.938,77.557l-6.448,0.197c0.009,0.03,0.017,0.059,0.025,0.088h6.34
			C65.882,77.748,65.91,77.654,65.938,77.557z"/>
		<path class="st0" d="M65.774,78.124l-6.112,0.226c0.015,0.053,0.031,0.106,0.046,0.158h5.956
			C65.699,78.383,65.736,78.256,65.774,78.124z"/>
		<path class="st0" d="M71.86,70.4h6.517c0.003-0.165,0.005-0.33,0.005-0.494l-6.522,0.161C71.86,70.178,71.86,70.289,71.86,70.4z"
			/>
		<path class="st0" d="M66.669,75.024l-8.084-0.133c0.075,0.191,0.152,0.382,0.232,0.571l7.795-0.242
			C66.631,75.156,66.65,75.09,66.669,75.024z"/>
		<path class="st0" d="M59.578,78.058c0.007,0.026,0.015,0.052,0.022,0.077l2.087-0.077H59.578z"/>
		<path class="st0" d="M65.439,79.283h-5.507c0.03,0.104,0.059,0.203,0.086,0.296l5.394-0.199
			C65.42,79.347,65.429,79.316,65.439,79.283z"/>
		<path class="st0" d="M77.53,77.841c0-0.051,0-0.101-0.001-0.152l-4.117,0.152H77.53z"/>
		<path class="st0" d="M55.245,63.074c-0.136,2.176,0.135,4.326,0.801,6.353h12.241c0.957-3.314,1.933-6.689,2.622-9.075
			c0.208-0.72,0.39-1.349,0.537-1.86c0.103-0.424,0.319-0.965,0.427-1.397c0,0.865,0,1.621-0.014,2.532c0,0.212,0,0.434,0,0.665
			c0,0.695,0,1.476,0,2.316c0,0.241,0,0.486,0,0.735c0.014,1.859,0.014,3.804,0.001,5.646c-0.001,0.145-0.001,0.291-0.001,0.437
			h6.52c-0.009-1.884-0.031-3.7,1.384-5.413c0.649-0.757,0.432-1.838,0.434-2.902c-0.02-0.403-0.051-0.813-0.089-1.225
			c-0.194-2.057-0.595-4.126-0.928-6.16c-0.039-0.397-0.079-0.776-0.134-1.15c-0.054-0.374-0.125-0.746-0.219-1.115
			c-0.077-0.311-0.155-0.623-0.228-0.934c-0.092-0.356-0.181-0.714-0.261-1.072c-0.08-0.358-0.15-0.717-0.205-1.077
			c-0.002-0.311-0.002-0.618-0.002-0.923c0-0.673,0-1.335,0-1.986h-9.539c-2.217,7.775-4.696,16.468-5.558,19.492
			c-0.068,0.237-0.125,0.439-0.173,0.603c0.04,0.179,0.04,0.395-0.176,0.503c-0.108-0.757-0.432-1.297-0.552-2.036
			c-0.092-0.32-0.193-0.673-0.303-1.055c-2.304-8.024-8.293-28.887-8.293-28.887v23.065c0,0,0.636,2.2,1.518,5.253
			C55.118,62.626,55.182,62.848,55.245,63.074z"/>
		<path class="st0" d="M67.229,73.087l-6.221-0.128h-3.316c0.114,0.184,0.233,0.366,0.355,0.547l9.126-0.225
			C67.192,73.217,67.21,73.152,67.229,73.087z"/>
		<path class="st0" d="M66.985,73.932h-8.759c0.039,0.108,0.078,0.216,0.118,0.324l8.624-0.263
			C66.973,73.973,66.979,73.952,66.985,73.932z"/>
		<path class="st0" d="M71.86,69.818c0,0.011,0,0.021,0,0.032l6.522-0.161c0-0.016,0-0.031,0-0.047H71.86
			C71.86,69.702,71.86,69.76,71.86,69.818z"/>
		<path class="st0" d="M56.333,70.232l11.805-0.291c0.029-0.099,0.058-0.199,0.086-0.299H56.118
			C56.186,69.841,56.257,70.037,56.333,70.232z"/>
		<path class="st0" d="M75.529,77.047l1.933-0.059c-0.009-0.053-0.018-0.105-0.03-0.158c-0.002-0.073-0.002-0.146-0.003-0.218
			l-4.944-0.101l-0.618,0.02c0,0.172-0.001,0.344-0.002,0.516H75.529z"/>
		<path class="st0" d="M77.588,74.167l-5.718,0.117c0,0.08,0,0.161,0,0.241h5.668C77.553,74.405,77.57,74.286,77.588,74.167z"/>
		<path class="st0" d="M78.016,72.743c0.069-0.163,0.133-0.324,0.18-0.489l-6.332,0.104c0.001,0.128,0.001,0.257,0.001,0.386H78.016
			z"/>
		<path class="st0" d="M78.251,72.013c0.006-0.038,0.011-0.076,0.016-0.115l-6.406-0.105c0.001,0.116,0.001,0.232,0.002,0.348
			l6.383-0.105C78.248,72.028,78.25,72.021,78.251,72.013z"/>
		<path class="st0" d="M71.86,70.647c0,0.035,0,0.07,0,0.105l6.511-0.134c0-0.001,0-0.002,0-0.003H71.86
			C71.86,70.626,71.86,70.637,71.86,70.647z"/>
		<path class="st0" d="M67.623,71.723L56.91,71.548c0.138,0.281,0.284,0.558,0.439,0.832l10.133-0.166
			C67.529,72.051,67.576,71.888,67.623,71.723z"/>
		<path class="st0" d="M67.419,72.43l-9.947,0.163c0.015,0.026,0.03,0.052,0.045,0.078l3.497,0.072h6.315
			C67.358,72.639,67.389,72.535,67.419,72.43z"/>
		<path class="st0" d="M77.899,73.018c0.008-0.019,0.016-0.039,0.025-0.058h-6.057c0,0.002,0,0.004,0,0.006l4.443,0.091
			L77.899,73.018z"/>
		<path class="st0" d="M56.682,71.064l11.198-0.23c0.021-0.073,0.042-0.145,0.063-0.218H56.487
			C56.55,70.766,56.615,70.915,56.682,71.064z"/>
		<path class="st0" d="M56.805,71.33l10.88,0.179c0.044-0.152,0.088-0.304,0.132-0.457L56.78,71.278
			C56.789,71.295,56.797,71.312,56.805,71.33z"/>
		<path class="st0" d="M58.322,70.4h9.684c0.023-0.08,0.046-0.16,0.069-0.24L58.322,70.4z"/>
		<path class="st0" d="M71.86,71.468c0,0.036,0,0.073,0.001,0.109l6.435,0.106c0.033-0.283,0.054-0.566,0.067-0.847l-6.502,0.133
			C71.86,71.135,71.86,71.303,71.86,71.468z"/>
		<path class="st0" d="M66.751,74.742h-4.094l4.075,0.067C66.738,74.786,66.745,74.764,66.751,74.742z"/>
		<path class="st0" d="M77.46,75.365c0.004-0.055,0.009-0.109,0.013-0.164l-2.113-0.035l-3.49,0.108c0,0.061,0,0.122,0,0.182
			L77.46,75.365z"/>
		<path class="st0" d="M71.869,75.673c0,0.026,0,0.051,0,0.077h5.571c0.002-0.056,0.005-0.112,0.008-0.169L71.869,75.673z"/>
		<path class="st0" d="M66.519,75.545c0.01-0.035,0.02-0.07,0.03-0.105l-7.196,0.223L66.519,75.545z"/>
		<path class="st0" d="M66.397,75.966h-7.424c0.005,0.017,0.01,0.034,0.015,0.051l7.351,0.151
			C66.358,76.101,66.377,76.034,66.397,75.966z"/>
		<path class="st0" d="M67.047,73.716c0.021-0.072,0.042-0.144,0.062-0.216l-8.787,0.216H67.047z"/>
		<path class="st0" d="M77.62,73.95c0.001-0.006,0.002-0.012,0.003-0.018H76.05l-4.181,0.128c0,0.003,0,0.006,0,0.009L77.62,73.95z"
			/>
		<path class="st0" d="M66.853,74.387l-6.731,0.138h6.691C66.827,74.48,66.84,74.434,66.853,74.387z"/>
		<path class="st0" d="M77.429,76.132c0.001-0.055,0.001-0.11,0.003-0.165h-5.563c0,0.105,0,0.21-0.001,0.315l0.611,0.013
			L77.429,76.132z"/>
		<path class="st0" d="M77.499,74.884c0.005-0.047,0.01-0.095,0.015-0.142H71.87c0,0.05,0,0.101,0,0.151l3.483,0.057L77.499,74.884z
			"/>
	</g>
	<g>
		<path class="st0" d="M124.708,40.38l-5.039,0.154l6.295-0.129c-0.002-0.008-0.004-0.017-0.006-0.025H124.708z"/>
		<path class="st0" d="M126.02,40.62l-8.835,0.181c0.023,0.057,0.046,0.115,0.067,0.172h8.839
			C126.071,40.854,126.047,40.736,126.02,40.62z"/>
		<polygon class="st0" points="107.623,40.163 107.623,40.148 106.98,40.163 		"/>
		<path class="st0" d="M105.479,37.508l18.579-0.381c-0.017-0.021-0.035-0.043-0.052-0.064h-18.527V37.508z"/>
		<path class="st0" d="M125.883,40.127c-0.019-0.059-0.036-0.119-0.057-0.177c-0.026-0.072-0.054-0.143-0.082-0.213l-0.774-0.016
			l-8.181,0.201c0.042,0.078,0.083,0.159,0.122,0.241h7.785L125.883,40.127z"/>
		<path class="st0" d="M117.618,40.38h-0.609c0.003,0.006,0.005,0.012,0.008,0.018L117.618,40.38z"/>
		<path class="st0" d="M120.172,39.622l-3.609-0.074c0.035,0.052,0.069,0.106,0.102,0.16L120.172,39.622z"/>
		<path class="st0" d="M117.611,42.198h8.577c0-0.057,0.001-0.114,0-0.17l-8.584,0.141
			C117.607,42.178,117.609,42.188,117.611,42.198z"/>
		<polygon class="st0" points="107.623,42.414 105.479,42.414 105.479,42.421 107.623,42.465 		"/>
		<path class="st0" d="M126.176,42.576c0.003-0.054,0.007-0.108,0.009-0.162h-8.529c0.019,0.085,0.034,0.171,0.05,0.257l3.43,0.07
			L126.176,42.576z"/>
		<path class="st0" d="M119.447,41.539l-2.015-0.033c0.009,0.032,0.019,0.063,0.028,0.095L119.447,41.539z"/>
		<path class="st0" d="M126.182,41.812c-0.003-0.054-0.005-0.108-0.009-0.162l-2.155-0.035l-6.498,0.201
			c0.012,0.046,0.024,0.092,0.035,0.138L126.182,41.812z"/>
		<path class="st0" d="M126.144,41.332c-0.006-0.048-0.014-0.095-0.02-0.142h-8.793c0.011,0.033,0.022,0.066,0.033,0.099
			l6.648,0.109L126.144,41.332z"/>
		<path class="st0" d="M125.638,39.488c-0.012-0.027-0.023-0.054-0.036-0.081h-5.389l4.753,0.097L125.638,39.488z"/>
		<polygon class="st0" points="107.623,46.718 105.479,46.788 105.479,46.811 107.623,46.811 		"/>
		<polygon class="st0" points="107.623,46.282 105.479,46.361 105.479,46.413 107.623,46.413 		"/>
		<path class="st0" d="M117.909,45.902c-0.007,0.088-0.015,0.175-0.024,0.263l7.356-0.241c0.032-0.064,0.061-0.129,0.091-0.193
			h-2.768L117.909,45.902z"/>
		<path class="st0" d="M117.842,43.495h6.345l1.887-0.058c0.022-0.126,0.041-0.252,0.057-0.377l-4.988-0.102l-3.366,0.11
			c0.018,0.113,0.036,0.226,0.051,0.339C117.833,43.436,117.837,43.466,117.842,43.495z"/>
		<path class="st0" d="M117.695,47.55l7.061-0.261c0.033-0.087,0.065-0.175,0.097-0.262h-7.077
			C117.751,47.202,117.724,47.376,117.695,47.55z"/>
		<path class="st0" d="M117.831,46.63c-0.008,0.061-0.016,0.121-0.024,0.181h7.125c0.022-0.06,0.043-0.121,0.065-0.181H117.831z"/>
		<path class="st0" d="M117.857,46.413h7.216c0.031-0.09,0.061-0.181,0.092-0.271l-7.304,0.24
			C117.86,46.392,117.859,46.403,117.857,46.413z"/>
		<polygon class="st0" points="107.623,38.029 105.479,37.994 105.479,38.836 107.623,38.8 		"/>
		<polygon class="st0" points="107.623,39.149 107.623,39.017 105.479,39.052 105.479,39.105 		"/>
		<path class="st0" d="M117.949,45.17c-0.003,0.114-0.008,0.229-0.014,0.344h4.614l2.929-0.108c0.034-0.078,0.068-0.157,0.099-0.235
			H117.949z"/>
		<path class="st0" d="M105.479,37.777l2.144,0.035v-0.034h3.937c0.753,0,1.434,0.036,2.048,0.132l11.188,0.184
			c-0.182-0.256-0.371-0.507-0.566-0.754l-18.751,0.385V37.777z"/>
		<path class="st0" d="M116.23,39.113c0.022,0.025,0.044,0.052,0.065,0.078h9.201c-0.052-0.101-0.106-0.202-0.164-0.302
			c-0.034-0.054-0.07-0.107-0.105-0.16l-9.256,0.152C116.06,38.953,116.147,39.03,116.23,39.113z"/>
		<path class="st0" d="M115.689,38.668l9.397-0.154c-0.045-0.067-0.09-0.134-0.136-0.2l-10.347-0.17
			C115.001,38.273,115.362,38.445,115.689,38.668z"/>
		<polygon class="st0" points="107.623,49.598 105.479,49.677 105.479,49.729 107.623,49.729 		"/>
		<polygon class="st0" points="107.623,47.027 105.479,47.027 105.479,48.001 107.623,47.922 		"/>
		<polygon class="st0" points="107.623,48.138 105.479,48.218 105.479,48.27 107.623,48.27 		"/>
		<polygon class="st0" points="107.623,45.73 105.479,45.73 105.479,46.144 107.623,46.065 		"/>
		<polygon class="st0" points="107.623,41.345 105.479,41.31 105.479,41.972 107.623,41.905 		"/>
		<polygon class="st0" points="107.623,44.505 105.479,44.505 105.479,44.685 107.623,44.606 		"/>
		<polygon class="st0" points="107.623,42.681 105.479,42.637 105.479,43.256 107.623,43.185 		"/>
		<polygon class="st0" points="107.623,48.486 105.479,48.486 105.479,49.46 107.623,49.381 		"/>
		<path class="st0" d="M125.879,44.289c0.014-0.047,0.026-0.095,0.038-0.142l-3.847,0.142H125.879z"/>
		<path class="st0" d="M122.93,35.875c-1.882-1.896-4.206-3.341-6.819-3.855c-0.335-0.096-0.681-0.181-1.039-0.253
			c-1.071-0.217-2.242-0.327-3.513-0.327h-6.08v4.435H122.93z"/>
		<path class="st0" d="M125.832,73.305c-0.343-1.292-0.991-2.481-1.362-3.736c-0.105-0.313-0.203-0.627-0.294-0.941
			c-0.075-0.262-0.145-0.525-0.208-0.79c-0.316-0.797-0.208-1.662-0.298-2.526c-0.006-0.288-0.006-0.575-0.005-0.862
			c0.003-0.861,0.02-1.719-0.055-2.569c-0.028-0.241-0.071-0.481-0.13-0.716c-0.118-0.471-0.301-0.927-0.557-1.353
			c-0.168-0.319-0.35-0.633-0.546-0.941c-0.196-0.308-0.407-0.609-0.634-0.904c-0.195-0.268-0.402-0.528-0.621-0.779
			c-0.219-0.251-0.448-0.493-0.688-0.727c0.133-0.067,0.267-0.2,0.4-0.334c0.067-0.133,0.2-0.267,0.267-0.334
			c0.508-0.613,0.951-1.304,1.329-2.072c0.126-0.256,0.245-0.521,0.356-0.794c0.122-0.33,0.233-0.662,0.337-0.995
			c0.161-0.657,0.378-1.32,0.619-1.987h-6.583c-0.067,0.227-0.137,0.453-0.211,0.676c-0.185,0.418-0.401,0.785-0.652,1.102
			c-0.2,0.2-0.601,0.534-1.201,0.934c-0.667,0.4-1.868,0.6-3.536,0.6h-3.937v-3.312h-2.144v30.669h2.144V59.597h3.937
			c1.401,0,2.565,0.237,3.494,0.714c0.232,0.119,0.45,0.253,0.647,0.405c0.233,0.232,0.437,0.48,0.617,0.739
			c0.18,0.259,0.335,0.531,0.473,0.812c2.646,5.097,1.781,11.151,1.041,16.56c0,0.366,0,0.686,0,0.95c0,0.528,0,0.838,0,0.838
			s2.157,0,3.954,0c0.257,0,0.506,0,0.741,0c0.585,0.046,1.125,0.046,1.666,0.046c-0.018-0.27,0.003-0.525,0.052-0.77
			c0.049-0.245,0.125-0.48,0.217-0.709c1.108-1.55,1.514-3.27,1.448-5.007C125.898,73.885,125.873,73.594,125.832,73.305z"/>
		<path class="st0" d="M124.101,48.989l-6.745,0.249c-0.034,0.131-0.068,0.262-0.104,0.392c-0.009,0.033-0.02,0.066-0.029,0.099
			h6.598C123.912,49.483,124.005,49.237,124.101,48.989z"/>
		<path class="st0" d="M117.57,48.27h6.809c0.098-0.253,0.197-0.507,0.293-0.761l-7.014,0.259
			C117.63,47.936,117.6,48.104,117.57,48.27z"/>
		<path class="st0" d="M117.508,48.614c-0.031,0.136-0.063,0.271-0.097,0.406l6.774-0.25c0.036-0.094,0.073-0.189,0.11-0.283h-6.764
			C117.523,48.529,117.516,48.572,117.508,48.614z"/>
		<path class="st0" d="M126.156,42.845c0.002-0.017,0.003-0.034,0.004-0.051l-0.961,0.032L126.156,42.845z"/>
		<polygon class="st0" points="107.623,45.221 107.623,45.17 105.479,45.17 105.479,45.288 		"/>
		<path class="st0" d="M123.236,44.954h2.424c0.009-0.025,0.019-0.051,0.028-0.076L123.236,44.954z"/>
		<polygon class="st0" points="107.623,45.438 105.479,45.504 105.479,45.514 107.623,45.514 		"/>
		<polygon class="st0" points="107.623,44.822 105.479,44.902 105.479,44.954 107.623,44.954 		"/>
		<polygon class="st0" points="107.623,44.001 107.623,43.711 105.479,43.711 105.479,44.066 		"/>
		<polygon class="st0" points="107.623,44.217 105.479,44.283 105.479,44.289 107.623,44.289 		"/>
		<path class="st0" d="M117.953,44.901l7.811-0.242c0.017-0.051,0.033-0.103,0.049-0.154h-7.868
			C117.95,44.637,117.953,44.769,117.953,44.901z"/>
		<polygon class="st0" points="107.623,40.38 105.479,40.38 105.479,40.75 107.623,40.685 		"/>
		<path class="st0" d="M105.479,36.668l17.794-0.438c-0.044-0.047-0.088-0.093-0.133-0.139h-17.662V36.668z"/>
		<polygon class="st0" points="107.623,39.407 105.479,39.407 105.479,39.984 107.623,39.931 		"/>
		<path class="st0" d="M123.825,36.847c-0.117-0.137-0.236-0.272-0.357-0.406l-16.488,0.406H123.825z"/>
		<path class="st0" d="M126.021,43.711h-1.822l-6.299,0.192c0.012,0.107,0.022,0.214,0.03,0.322l8.044-0.297
			C125.991,43.856,126.006,43.783,126.021,43.711z"/>
		<polygon class="st0" points="105.479,43.495 107.623,43.495 107.623,43.402 105.479,43.472 		"/>
	</g>
	<g>
		<path class="st0" d="M9.782,7.84c0-3.197,0.832-5.212,2.059-6.351c1.226-1.139,2.803-1.445,4.248-1.445
			c1.401,0,2.978,0.307,4.205,1.445c1.226,1.139,2.059,3.153,2.059,6.351v0.701H20.95V7.84c0-4.511-1.708-6.438-4.862-6.438
			c-3.197,0-4.905,1.927-4.905,6.438v13.884c0,4.511,1.621,6.482,4.905,6.482c1.577,0,2.803-0.525,3.635-1.533
			c0.832-1.095,1.226-2.715,1.226-4.949v-0.701h1.401v0.701c0,3.285-0.832,5.168-2.059,6.351c-1.226,1.183-2.803,1.489-4.205,1.489
			c-1.445,0-3.022-0.307-4.248-1.489c-1.226-1.183-2.059-3.066-2.059-6.351V7.84z"/>
		<path class="st0" d="M24.936,7.84c0-5.037,2.102-7.796,6.263-7.796c4.205,0,6.307,2.715,6.307,7.796v13.884
			c0,3.285-0.832,5.168-2.059,6.351c-1.226,1.183-2.803,1.489-4.248,1.489c-1.402,0-2.978-0.307-4.205-1.489
			c-1.226-1.183-2.059-3.066-2.059-6.351V7.84z M26.294,21.724c0,4.424,1.62,6.482,4.905,6.482c3.197,0,4.905-1.927,4.905-6.482
			V7.84c0-4.511-1.621-6.438-4.905-6.438c-3.329,0-4.905,2.059-4.905,6.438V21.724z"/>
		<path class="st0" d="M48.63,29.564L41.754,5.65v23.914h-1.358V0.044h1.183l7.577,26.323l7.533-26.323h1.226v29.52h-1.401V5.65
			l-6.833,23.914H48.63z"/>
		<path class="st0" d="M71.843,0.044v1.358h-9.241v12.701h9.241v1.358h-9.241v12.745h9.241v1.358H61.244V0.044H71.843z"/>
		<path class="st0" d="M74.515,21.067h1.358v0.657c0,2.935,0.745,4.511,1.708,5.387c0.964,0.876,2.19,1.051,3.241,1.051
			c3.153,0,4.949-2.321,4.949-6.219c0-2.102-0.832-3.504-1.84-4.424c-1.051-0.92-2.277-1.401-2.978-1.708l-0.745-0.307
			c-0.876-0.35-2.277-0.964-3.46-2.19c-1.226-1.183-2.234-2.891-2.234-5.475c0-4.424,2.278-7.84,6.307-7.84
			c4.161,0,6.351,2.759,6.351,7.84v0.701h-1.401V7.84c0-4.424-1.621-6.438-4.949-6.438c-3.153,0-4.949,2.628-4.949,6.438
			c0,2.102,0.788,3.504,1.839,4.511c1.007,1.007,2.19,1.533,3.066,1.883l0.701,0.307c0.745,0.307,2.19,0.832,3.416,1.971
			c1.226,1.139,2.277,2.847,2.277,5.431c0,4.38-2.277,7.577-6.351,7.577c-4.205,0-6.307-2.584-6.307-7.796V21.067z"/>
	</g>
	<g>
		<g>
			<path class="st0" d="M0.162,31.735H9.04v0.802H4.977v16.1H4.2v-16.1H0.162V31.735z"/>
			<path class="st0" d="M5.139,48.8H4.037V32.7H0v-1.127h9.202V32.7H5.139V48.8z"/>
		</g>
		<g>
			<path class="st0" d="M16.802,39.836v-8.075h0.802v16.902h-0.802v-8.05h-5.116v8.05h-0.802V31.761h0.802v8.075H16.802z"/>
			<path class="st0" d="M17.767,48.825H16.64v-8.05h-4.792v8.05h-1.127V31.598h1.127v8.075h4.792v-8.075h1.127V48.825z"/>
		</g>
		<g>
			<path class="st0" d="M26.12,31.761v0.777h-5.291v7.273h5.291v0.777h-5.291v7.298h5.291v0.777h-6.069V31.761H26.12z"/>
			<path class="st0" d="M26.282,48.825h-6.393V31.598h6.393V32.7h-5.291v6.948h5.291v1.102h-5.291v6.973h5.291V48.825z"/>
		</g>
	</g>
</g>
</svg>