<!-- Generator: Adobe Illustrator 19.1.0, SVG Export Plug-In  -->
<svg version="1.1"
	 xmlns="http://www.w3.org/2000/svg" xmlns:xlink="http://www.w3.org/1999/xlink" xmlns:a="http://ns.adobe.com/AdobeSVGViewerExtensions/3.0/"
	 x="0px" y="0px" width="104.32px" height="98.187px" viewBox="0 0 104.32 98.187"
	 style="enable-background:new 0 0 104.32 98.187;" xml:space="preserve">
<style type="text/css">
	.st0{fill:#FFFFFF;}
</style>
<defs>
</defs>
<path class="st0" d="M83.722,45.463l1.566-1.345l2.464,2.869l16.568-14.228l-7.795-9.076c-2.766,2.375-7.815,1.031-11.279-3.002
	s-4.03-9.228-1.264-11.603L76.188,0L59.62,14.228l2.464,2.869l-1.566,1.345l-2.464-2.869L0,65.429l7.795,9.076
	c2.766-2.375,7.816-1.031,11.279,3.003s4.03,9.228,1.264,11.603l7.795,9.076l58.054-49.855L83.722,45.463z M70.104,29.605
	l-5.555-6.468l1.566-1.345l5.555,6.468L70.104,29.605z M79.69,40.768L74.136,34.3l1.566-1.345l5.555,6.468L79.69,40.768z"/>
</svg>